<?xml version="1.0" encoding="utf-8"?>
<!-- Generator: Adobe Illustrator 23.0.6, SVG Export Plug-In . SVG Version: 6.00 Build 0)  -->
<svg version="1.1" id="Layer_1" xmlns="http://www.w3.org/2000/svg" xmlns:xlink="http://www.w3.org/1999/xlink" x="0px" y="0px"
	 viewBox="0 0 597 136.3" style="enable-background:new 0 0 597 136.3;" xml:space="preserve">
<style type="text/css">
	.st0{fill:#FFFFFF;}
</style>
<g>
	<g>
		<path class="st0" d="M62.5,10.4l35.4,3.3l-35.5,5L27,14.2L62.5,10.4z M62.5,9.2l-46.2,4.9L62.4,20l46.2-6.5L62.5,9.2z"/>
		<polygon class="st0" points="108.6,16.1 108.6,42.2 83.5,48.4 83.5,96.2 92.4,92.4 92.4,83.2 88,84.9 88,56.7 108.6,50.9 
			108.6,111.8 63.8,127.1 63.8,22.6 		"/>
		<polygon class="st0" points="32.5,92.4 61.1,103.2 61.1,127.1 16.3,111.8 16.3,16.1 61.1,22.6 61.1,52.1 32.5,46.2 32.5,56.4 
			61.1,63.3 61.1,92 32.5,82.2 		"/>
	</g>
	<g>
		<path class="st0" d="M124.1,97.6V38.7h45.3v10.6h-33.1v13.5h21.8V73h-21.8v14h33.4v10.6H124.1z"/>
		<path class="st0" d="M178.4,97.6V38.7h45.3v10.6h-33.1v13.5h21.8V73h-21.8v14H224v10.6H178.4z"/>
		<path class="st0" d="M258.3,98.5c-4.4,0-8.5-0.8-12.3-2.3c-3.8-1.5-7.1-3.7-10-6.4c-2.8-2.8-5.1-6-6.7-9.6s-2.4-7.6-2.4-11.9
			c0-4.3,0.8-8.3,2.4-12c1.6-3.7,3.8-6.9,6.7-9.6c2.9-2.8,6.2-4.9,10-6.4s7.9-2.3,12.3-2.3c3.3,0,6.4,0.5,9.4,1.3
			c3,0.9,5.9,2.2,8.5,3.8c2.6,1.6,4.8,3.6,6.7,5.9l-8.3,8.2c-2.1-2.6-4.6-4.6-7.4-6c-2.8-1.3-5.8-2-9-2c-2.6,0-5.1,0.5-7.4,1.5
			c-2.3,1-4.3,2.3-6,4c-1.7,1.7-3,3.7-4,6.1c-1,2.3-1.4,4.9-1.4,7.6c0,2.7,0.5,5.2,1.4,7.5c1,2.3,2.3,4.4,4,6.1c1.7,1.7,3.8,3,6.1,4
			c2.3,1,4.9,1.4,7.6,1.4c3.1,0,6-0.6,8.7-1.9c2.7-1.3,5.1-3.1,7.2-5.6l8,7.9c-1.9,2.2-4.1,4.2-6.7,5.8c-2.6,1.6-5.4,2.9-8.4,3.7
			C264.5,98,261.4,98.5,258.3,98.5z"/>
		<path class="st0" d="M335.6,98.5c-4.4,0-8.4-0.8-12.2-2.3c-3.8-1.5-7.1-3.7-9.9-6.5c-2.9-2.8-5.1-6-6.7-9.7
			c-1.6-3.7-2.4-7.6-2.4-11.9c0-4.3,0.8-8.2,2.4-11.9c1.6-3.7,3.8-6.9,6.6-9.7c2.8-2.8,6.1-4.9,9.9-6.5s7.8-2.3,12.2-2.3
			c4.9,0,9.5,1,13.8,2.9c4.3,1.9,7.9,4.6,10.7,8.1l-8.5,7.8c-2-2.5-4.4-4.4-7.2-5.7c-2.8-1.3-5.7-1.9-8.8-1.9
			c-2.6,0-5.1,0.5-7.3,1.5c-2.2,1-4.2,2.3-5.9,4c-1.7,1.7-3,3.7-3.9,6.1c-0.9,2.3-1.4,4.9-1.4,7.6c0,2.8,0.5,5.3,1.4,7.7
			c1,2.4,2.3,4.4,4,6.1c1.7,1.7,3.7,3.1,6,4c2.3,1,4.8,1.5,7.5,1.5c2.8,0,5.3-0.5,7.6-1.6c2.2-1,4.1-2.5,5.7-4.4
			c1.5-1.9,2.6-4,3.1-6.4h-17.4V64.5h30.5v3.7c0,4.4-0.7,8.4-2.2,12.1c-1.5,3.7-3.6,6.9-6.2,9.6c-2.6,2.7-5.8,4.8-9.3,6.4
			C343.8,97.8,339.8,98.5,335.6,98.5z"/>
		<path class="st0" d="M365.4,97.6l24.3-58.9h14.1l24,58.9h-13.2l-6-15.5h-24.3l-6.1,15.5H365.4z M387.9,72.4h16.8l-8.4-21.7
			L387.9,72.4z"/>
		<path class="st0" d="M432.7,97.6V38.7h12.2v48.2h32.3v10.8H432.7z"/>
		<path class="st0" d="M490.8,97.6l-23.9-58.9h13.2l18,46.4l18.4-46.4h12.6l-24.2,58.9H490.8z"/>
		<path class="st0" d="M518.5,97.6l24.3-58.9h14.1l24,58.9h-13.2l-6-15.5h-24.3l-6.1,15.5H518.5z M541,72.4h16.8l-8.4-21.7L541,72.4
			z"/>
	</g>
</g>
</svg>
