<?xml version="1.0" encoding="utf-8"?>
<!-- Generator: Adobe Illustrator 23.0.6, SVG Export Plug-In . SVG Version: 6.00 Build 0)  -->
<svg version="1.1" id="Layer_1" xmlns="http://www.w3.org/2000/svg" xmlns:xlink="http://www.w3.org/1999/xlink" x="0px" y="0px"
	 viewBox="0 0 78.7 25" style="enable-background:new 0 0 78.7 25;" xml:space="preserve">
<style type="text/css">
	.st0{fill:none;stroke:#FFFFFF;stroke-width:2;stroke-linecap:round;stroke-linejoin:round;stroke-miterlimit:10;}
	.st1{fill:#FFFFFF;}
</style>
<g>
	<g>
		<line class="st0" x1="2.8" y1="4.8" x2="17.1" y2="4.8"/>
		<line class="st0" x1="2.8" y1="9.9" x2="22.2" y2="9.9"/>
		<line class="st0" x1="2.8" y1="15.1" x2="16.4" y2="15.1"/>
		<line class="st0" x1="2.8" y1="20.2" x2="21.7" y2="20.2"/>
	</g>
	<g>
		<path class="st1" d="M34.6,16.5V6.7h2.6l2.7,5.3l2.7-5.3h2.6v9.8h-1.9V9.3l-3.4,6.5l-3.4-6.5v7.2H34.6z"/>
		<path class="st1" d="M47,16.5V6.7h7.5v1.8H49v2.2h3.6v1.7H49v2.3h5.6v1.8H47z"/>
		<path class="st1" d="M56,16.5V6.7h1.9l4.9,6.3V6.7h1.9v9.8h-1.8l-5-6.6v6.6H56z"/>
		<path class="st1" d="M70.7,16.7c-0.9,0-1.7-0.2-2.3-0.5c-0.6-0.4-1.2-0.9-1.5-1.5c-0.4-0.7-0.5-1.4-0.5-2.3V6.7h2v5.6
			c0,0.5,0.1,0.9,0.3,1.3c0.2,0.4,0.5,0.7,0.8,0.9s0.8,0.3,1.2,0.3s0.9-0.1,1.2-0.3s0.6-0.5,0.8-0.9c0.2-0.4,0.3-0.8,0.3-1.3V6.7h2
			v5.6c0,0.9-0.2,1.6-0.5,2.3c-0.4,0.7-0.9,1.2-1.5,1.5C72.3,16.5,71.6,16.7,70.7,16.7z"/>
	</g>
</g>
</svg>
