<?xml version="1.0" encoding="utf-8"?>
<!-- Generator: Adobe Illustrator 23.0.6, SVG Export Plug-In . SVG Version: 6.00 Build 0)  -->
<svg version="1.1" id="Layer_1" xmlns="http://www.w3.org/2000/svg" xmlns:xlink="http://www.w3.org/1999/xlink" x="0px" y="0px"
	 viewBox="0 0 55 55" style="enable-background:new 0 0 55 55;" xml:space="preserve">
<style type="text/css">
	.st0{fill:none;}
	.st1{fill:#1A5632;}
</style>
<g id="background_1_">
</g>
<g>
	<path class="st0" d="M13.2,13.1c2.9-2.9,6.8-4.4,10.5-4.4C19.8,8.8,16.1,10.2,13.2,13.1z"/>
	<path class="st0" d="M38.6,23.6L38.6,23.6c0,1.9-0.4,3.8-1.1,5.6C38.2,27.5,38.6,25.6,38.6,23.6z"/>
	<path class="st0" d="M8.8,23.6c0,1,0.1,1.9,0.3,2.9C8.9,25.6,8.8,24.6,8.8,23.6L8.8,23.6z"/>
	<path class="st0" d="M10.5,30.5c-0.5-0.9-0.8-1.8-1.1-2.7C9.7,28.8,10,29.7,10.5,30.5z"/>
	<path class="st1" d="M51.5,46.2L41,35.7l0.3-0.4c2.3-3.6,3.5-7.6,3.5-11.7c0-5.4-2.1-10.8-6.2-15c-4.1-4.1-9.6-6.2-15-6.2
		c-5.4,0-10.8,2.1-15,6.2c-4.1,4.1-6.2,9.6-6.2,15c0,5.4,2.1,10.9,6.2,15c4.1,4.1,9.5,6.2,15,6.2c4.1,0,8.1-1.2,11.7-3.5l0.4-0.3
		l10.5,10.5c0.1,0.1,0.1,0.1,0.3,0.3c0.1,0.1,0.4,0.3,0.6,0.4c0.4,0.3,0.9,0.4,1.3,0.4c0.1,0,0.3,0,0.4,0c1,0,1.9-0.4,2.7-1.2
		c0.8-0.8,1-1.7,1-2.6C52.4,48,52.1,47,51.5,46.2z M38.6,23.6c0,1.9-0.4,3.8-1.1,5.6c-0.7,1.8-1.8,3.5-3.3,4.9
		c-2.9,2.9-6.8,4.4-10.5,4.4c-3.8,0-7.6-1.4-10.5-4.4c-1.1-1.1-2-2.3-2.7-3.6c-0.5-0.9-0.8-1.8-1.1-2.7c-0.1-0.5-0.2-0.9-0.3-1.4
		c-0.2-0.9-0.3-1.9-0.3-2.9v0l0,0c0-1.4,0.2-2.9,0.6-4.3c0.7-2.3,1.9-4.5,3.8-6.2c2.9-2.9,6.7-4.4,10.5-4.4c3.8,0,7.7,1.4,10.5,4.4
		c2.6,2.6,4,5.8,4.3,9.1C38.5,22.7,38.6,23.2,38.6,23.6L38.6,23.6L38.6,23.6z"/>
	<path class="st1" d="M38.5,22.2c0,0.5,0.1,0.9,0.1,1.4v0C38.6,23.2,38.5,22.7,38.5,22.2z"/>
	<path class="st1" d="M37.5,29.2c-0.7,1.8-1.8,3.4-3.3,4.9C35.7,32.7,36.8,31,37.5,29.2z"/>
	<path class="st1" d="M8.8,23.6L8.8,23.6c0-1.4,0.2-2.9,0.6-4.3C9,20.8,8.8,22.2,8.8,23.6z"/>
	<path class="st1" d="M23.7,38.5c-3.7,0-7.6-1.4-10.5-4.4C16.1,37.1,19.8,38.5,23.7,38.5z"/>
</g>
</svg>
